<svg id="Group_11514" data-name="Group 11514" xmlns="http://www.w3.org/2000/svg" width="568" height="568" viewBox="0 0 568 568">
  <g id="Final_Logo_Vector" data-name="Final Logo Vector">
    <path id="Path_7575" data-name="Path 7575" d="M199.078,199.078a45.155,45.155,0,1,1-.01-63.858A45.158,45.158,0,0,1,199.078,199.078Z" transform="translate(-121.995 -121.995)" fill="#d508f9"/>
    <path id="Path_7576" data-name="Path 7576" d="M666.688,666.688a45.154,45.154,0,1,1-.01-63.857A45.155,45.155,0,0,1,666.688,666.688Z" transform="translate(-111.907 -111.907)" fill="#06d6a0"/>
    <path id="Path_7577" data-name="Path 7577" d="M162.557,648.155h0a44.646,44.646,0,0,1,0-63.144L586.131,161.447a44.649,44.649,0,0,1,63.144,63.143L225.71,648.155A44.659,44.659,0,0,1,162.557,648.155Z" transform="translate(-121.402 -121.426)" fill="#fb5607"/>
    <path id="Path_7578" data-name="Path 7578" d="M169.537,402.425h0a44.7,44.7,0,0,1,0-63.2L339.22,169.537a44.692,44.692,0,1,1,63.205,63.2L232.741,402.425A44.7,44.7,0,0,1,169.537,402.425Z" transform="translate(-121.252 -121.252)" fill="#ff006e"/>
    <path id="Path_7579" data-name="Path 7579" d="M402.987,635.874h0a44.7,44.7,0,0,1,0-63.2L572.669,402.985a44.692,44.692,0,0,1,63.2,63.2L466.191,635.874A44.684,44.684,0,0,1,402.987,635.874Z" transform="translate(-116.215 -116.215)" fill="#009ee2"/>
  </g>
</svg>
